<svg width="72" height="73" viewBox="0 0 72 73" fill="none" xmlns="http://www.w3.org/2000/svg">
<path d="M54 13.6719H18V64.6719C18 66.3294 19.3425 67.6719 21 67.6719H51C52.6575 67.6719 54 66.3294 54 64.6719V13.6719Z" fill="#EDEDED"/>
<path d="M54 13.6719H18V9.17188C18 7.51437 19.3425 6.17188 21 6.17188H51C52.6575 6.17188 54 7.51437 54 9.17188V13.6719Z" fill="#CACACA"/>
<path d="M30 11.0469C30.6213 11.0469 31.125 10.5432 31.125 9.92188C31.125 9.30055 30.6213 8.79688 30 8.79688C29.3787 8.79688 28.875 9.30055 28.875 9.92188C28.875 10.5432 29.3787 11.0469 30 11.0469Z" fill="#929292"/>
<path d="M41.25 8.79688C40.959 8.79688 34.041 8.79688 33.75 8.79688C33.129 8.79688 32.625 9.30088 32.625 9.92188C32.625 10.5429 33.129 11.0469 33.75 11.0469C34.041 11.0469 40.959 11.0469 41.25 11.0469C41.871 11.0469 42.375 10.5429 42.375 9.92188C42.375 9.30088 41.871 8.79688 41.25 8.79688Z" fill="#929292"/>
<path d="M36.942 29.0724C36.408 28.5384 35.6085 28.5384 35.076 29.0724L26.409 37.7394C25.875 38.2734 25.875 39.0729 26.409 39.6054C26.676 39.8724 27.009 40.0059 27.342 40.0059C27.675 40.0059 28.008 39.8724 28.275 39.6054L36.942 30.9384C37.4745 30.4059 37.4745 29.6049 36.942 29.0724Z" fill="#656565"/>
<path d="M45.942 38.0724L36.942 29.0724C36.408 28.5384 35.6085 28.5384 35.076 29.0724C34.542 29.6064 34.542 30.4059 35.076 30.9384L44.076 39.9384C44.343 40.2054 44.676 40.3389 45.009 40.3389C45.342 40.3389 45.675 40.2054 45.942 39.9384C46.4745 39.4059 46.4745 38.6049 45.942 38.0724Z" fill="#656565"/>
<path d="M49.0815 38.8449L48.8085 40.6719L48.768 40.9389L47.202 51.4254C47.088 52.1454 46.4745 52.6719 45.7485 52.6719H26.268C25.542 52.6719 24.9285 52.1454 24.8145 51.4254L23.2605 40.9389L23.2215 40.6719L22.9485 38.8449C22.8825 38.3979 23.2215 38.0049 23.6745 38.0049H48.354C48.8085 38.0049 49.149 38.3979 49.0815 38.8449Z" fill="#4CAF50"/>
<path d="M33.675 51.3384C33.123 51.3384 32.6745 50.8899 32.6745 50.3379V43.0044C32.6745 42.4524 33.123 42.0039 33.675 42.0039C34.227 42.0039 34.6755 42.4524 34.6755 43.0044V50.3379C34.6755 50.8899 34.227 51.3384 33.675 51.3384Z" fill="black" fill-opacity="0.24"/>
<path d="M29.0085 51.3384C28.4565 51.3384 28.008 50.8899 28.008 50.3379V43.0044C28.008 42.4524 28.4565 42.0039 29.0085 42.0039C29.5605 42.0039 30.009 42.4524 30.009 43.0044V50.3379C30.009 50.8899 29.5605 51.3384 29.0085 51.3384Z" fill="black" fill-opacity="0.24"/>
<path d="M38.3415 51.3384C37.7895 51.3384 37.341 50.8899 37.341 50.3379V43.0044C37.341 42.4524 37.7895 42.0039 38.3415 42.0039C38.8935 42.0039 39.342 42.4524 39.342 43.0044V50.3379C39.342 50.8899 38.8935 51.3384 38.3415 51.3384Z" fill="black" fill-opacity="0.24"/>
<path d="M43.008 51.3384C42.456 51.3384 42.0075 50.8899 42.0075 50.3379V43.0044C42.0075 42.4524 42.456 42.0039 43.008 42.0039C43.56 42.0039 44.0085 42.4524 44.0085 43.0044V50.3379C44.0085 50.8899 43.56 51.3384 43.008 51.3384Z" fill="black" fill-opacity="0.24"/>
</svg>
