<svg width="72" height="73" viewBox="0 0 72 73" fill="none" xmlns="http://www.w3.org/2000/svg">
<path d="M54 13.6719H18V64.6719C18 66.3294 19.3425 67.6719 21 67.6719H51C52.6575 67.6719 54 66.3294 54 64.6719V13.6719Z" fill="#EDEDED"/>
<path d="M54 13.6719H18V9.17188C18 7.51437 19.3425 6.17188 21 6.17188H51C52.6575 6.17188 54 7.51437 54 9.17188V13.6719Z" fill="#CACACA"/>
<path d="M30 11.0469C30.6213 11.0469 31.125 10.5432 31.125 9.92188C31.125 9.30055 30.6213 8.79688 30 8.79688C29.3787 8.79688 28.875 9.30055 28.875 9.92188C28.875 10.5432 29.3787 11.0469 30 11.0469Z" fill="#929292"/>
<path d="M41.25 8.79688C40.959 8.79688 34.041 8.79688 33.75 8.79688C33.129 8.79688 32.625 9.30088 32.625 9.92188C32.625 10.5429 33.129 11.0469 33.75 11.0469C34.041 11.0469 40.959 11.0469 41.25 11.0469C41.871 11.0469 42.375 10.5429 42.375 9.92188C42.375 9.30088 41.871 8.79688 41.25 8.79688Z" fill="#929292"/>
<path d="M43.5375 43.5199C47.5875 39.3574 47.496 32.7004 43.332 28.6504C39.168 24.6004 32.5125 24.6919 28.4625 28.8559C24.492 32.9374 24.492 39.4384 28.4625 43.5214C28.473 43.5319 28.4805 43.5454 28.491 43.5559L28.5255 43.5904C28.5525 43.6189 28.581 43.6459 28.608 43.6729L35.1735 50.2384C35.6295 50.6944 36.369 50.6944 36.825 50.2384L43.392 43.6714C43.4205 43.6444 43.4475 43.6159 43.4745 43.5889L43.509 43.5544C43.521 43.5424 43.527 43.5304 43.5375 43.5199Z" fill="#FF5634"/>
<path d="M36 40.8695C38.5814 40.8695 40.674 38.7769 40.674 36.1955C40.674 33.6141 38.5814 31.5215 36 31.5215C33.4186 31.5215 31.326 33.6141 31.326 36.1955C31.326 38.7769 33.4186 40.8695 36 40.8695Z" fill="#F9F9F9"/>
</svg>
